Coordinates
version=1
nRows=12
nColumns=33
inDegrees=yes

Units are S.I. units (second, meters, Newtons, ...)
Angles are in degrees.

endheader
time	ground_thorax_rot_x	ground_thorax_rot_y	ground_thorax_rot_z	ground_thorax_tx	ground_thorax_ty	ground_thorax_tz	clav_prot_r	clav_elev_r	scapula_abduction_r	scapula_elevation_r	scapula_upward_rot_r	scapula_winging_r	shoulder_elv_r	plane_of_elev_r	axial_rot_r	elbow_flexion_r	pro_sup_r	wrist_flex_r	wrist_dev_r	clav_prot_l	clav_elev_l	scapula_abduction_l	scapula_elevation_l	scapula_upward_rot_l	scapula_winging_l	shoulder_elv_l	plane_of_elev_l	axial_rot_l	elbow_flexion_l	pro_sup_l	wrist_flex_l	wrist_dev_l
      0.84000000	      2.96815544	     -2.08176639	      0.79438546	     -0.15781531	      0.98871575	      0.00636056	     -7.05187102	     -0.36279073	     -8.38456079	      5.41340533	      3.60728779	     -0.60680864	     47.97598702	    -36.51834192	     38.13825559	     79.35873896	     -6.01589822	     26.96265065	    -11.69746757	     -9.70823135	     -3.08969714	     14.14157387	     -4.48818645	     -3.64544956	     -2.89015199	     44.19303736	    -40.05943194	    -19.00060833	     71.86890060	     15.53151866	    -14.05711121	    -24.99999983
      0.85000000	      2.92491312	     -2.03840730	      0.79111362	     -0.15762327	      0.98818369	      0.00646950	     -6.76656481	     -0.08912043	     -8.16758163	      5.83966961	      3.18371629	     -0.58672234	     47.49724730	    -35.89966722	     36.26352008	     79.92066530	     -7.04308254	     23.32963845	     -9.31063363	     -9.54920937	     -2.94282122	     13.92236881	     -4.65912104	     -3.71565691	     -2.84327316	     44.55721075	    -39.81088264	    -19.17600203	     72.25130455	     14.77560514	    -12.35249429	    -24.99999983
      0.86000000	      2.93550049	     -2.08368694	      0.66018828	     -0.15717070	      0.98845679	      0.00635994	     -6.77709053	     -0.34546653	     -8.02360773	      5.53978031	      3.34337373	     -0.61230501	     47.45209097	    -35.48197915	     35.91241130	     79.91573980	     -7.10042572	     23.18249450	     -9.22452217	     -9.49352150	     -3.02551487	     13.78066393	     -4.56422647	     -3.66656684	     -2.82745205	     44.64370907	    -39.64287758	    -19.19606113	     72.32964293	     14.74192702	    -12.25360492	    -24.99999983
      0.87000000	      2.80673090	     -2.00773275	      0.63810269	     -0.15668983	      0.98846655	      0.00645977	     -6.72800944	     -0.31525494	     -7.94166258	      5.56549469	      3.35079684	     -0.63253525	     46.71060829	    -35.02794303	     34.36614671	     80.01463032	     -7.68157257	     21.13065787	     -7.76880302	     -9.38176754	     -2.97583260	     13.56827463	     -4.59096784	     -3.60916112	     -2.77409176	     44.99168039	    -39.47940978	    -19.37355995	     72.59001864	     14.30941835	    -11.04084898	    -24.99999983
      0.88000000	      2.83301669	     -2.03606128	      0.49341286	     -0.15615644	      0.98862527	      0.00621097	     -6.72533640	     -0.53429321	     -7.75998445	      5.27880242	      3.56514174	     -0.68021527	     46.69302658	    -34.57994743	     34.02571020	     79.98347890	     -7.77124284	     20.88902315	     -7.62570669	     -9.34610920	     -3.06624134	     13.46774184	     -4.49693137	     -3.58236143	     -2.77009720	     45.00955758	    -39.22490984	    -19.29678031	     72.80601300	     14.23280606	    -10.93065762	    -24.99999983
      0.89000000	      2.82144564	     -2.01870780	      0.57437017	     -0.15571880	      0.98842608	      0.00634850	     -6.62772994	     -0.31572924	     -7.61314445	      5.44965444	      3.64593086	     -0.75364664	     46.01702864	    -34.00636812	     32.63555486	     80.14648854	     -8.77066595	     18.17073731	     -5.88829271	     -9.20580793	     -3.01281119	     13.28819973	     -4.60962357	     -3.72647954	     -2.76364377	     45.26221262	    -38.95218772	    -19.17865054	     73.03264327	     13.59978329	     -9.51679572	    -24.99999983
      0.90000000	      2.83603343	     -2.04369603	      0.51179118	     -0.15519536	      0.98861466	      0.00617252	     -6.59386666	     -0.52912179	     -7.38938490	      5.17986729	      3.83372108	     -0.80527233	     46.05997501	    -33.56523288	     32.45161185	     80.09083797	     -8.85627258	     17.96503333	     -5.77406265	     -9.14875222	     -3.10719857	     13.14764349	     -4.51230294	     -3.69931213	     -2.75337915	     45.30925109	    -38.71113793	    -19.11722773	     73.19131824	     13.53319384	     -9.41251205	    -24.99012445
      0.91000000	      2.75542132	     -2.07757220	      0.37347052	     -0.15463779	      0.98882608	      0.00607469	     -6.57385056	     -0.78885039	     -7.21749338	      4.89826871	      3.94408962	     -0.82005860	     45.95668725	    -32.95615523	     32.04577734	     79.91870620	     -9.19032306	     17.31134850	     -5.49036771	     -9.09558944	     -3.20407168	     13.01472060	     -4.41209729	     -3.67126506	     -2.74662312	     45.44428682	    -38.41804421	    -18.93849244	     73.44745842	     13.35170553	     -9.12957875	    -24.85243593
      0.92000000	      2.82978989	     -2.03057955	      0.65905454	     -0.15419170	      0.98846006	      0.00620780	     -6.50114547	     -0.56234195	     -7.31433685	      5.23215151	      3.62847428	     -0.76914897	     45.97713921	    -32.06855407	     31.20347299	     80.29850439	    -11.13450251	     13.73755507	     -3.69358224	     -8.86334982	     -3.14630162	     12.80076755	     -4.66566652	     -4.14561246	     -2.79754000	     45.75012241	    -38.01534825	    -18.56875382	     73.92877548	     12.47750767	     -7.19191428	    -23.49745010
      0.93000000	      2.74929696	     -2.08970160	      0.67219928	     -0.15355318	      0.98887425	      0.00618825	     -6.48593856	     -0.90949483	     -7.15633509	      4.89491029	      3.67554984	     -0.75370536	     45.99833030	    -31.46833271	     30.99051045	     79.99836871	    -11.35124991	     13.32802876	     -3.53134001	     -8.82177512	     -3.27559133	     12.69094871	     -4.54618981	     -4.14596966	     -2.80428452	     45.90712323	    -37.79068228	    -18.35850785	     74.08917949	     12.37699017	     -6.95524063	    -23.28512952
      0.94000000	      2.73443944	     -1.96266093	      0.80584909	     -0.15301124	      0.98855719	      0.00608711	     -6.46024468	     -0.89799579	     -7.32881350	      5.07688622	      3.24282649	     -0.63280299	     46.22156770	    -30.36016640	     30.39397716	     79.95378929	    -12.78129514	     10.88505033	     -2.38763000	     -8.61188066	     -3.25610701	     12.46211732	     -4.72104114	     -4.51541966	     -2.83803190	     46.22622912	    -37.23402635	    -17.99096637	     74.77821857	     11.87113881	     -5.30499591	    -21.61454666
      0.95000000	      2.80396238	     -1.86968630	      1.02616516	     -0.15237841	      0.98890028	      0.00592007	     -6.42055795	     -1.12172363	     -7.12028905	      4.81626163	      3.38240412	     -0.66367099	     46.35317502	    -30.01590551	     30.25786531	     79.51537496	    -12.84168672	     10.72864586	     -2.37475647	     -8.54859748	     -3.38948971	     12.30551640	     -4.58847869	     -4.49194903	     -2.83580431	     46.22327756	    -36.95423136	    -18.00226051	     74.86141344	     11.85477956	     -5.23233033	    -21.54112869
